<?xml version="1.0" standalone="no"?>
<!DOCTYPE svg PUBLIC "-//W3C//DTD SVG 20010904//EN"
 "http://www.w3.org/TR/2001/REC-SVG-20010904/DTD/svg10.dtd">
<svg version="1.0" xmlns="http://www.w3.org/2000/svg"
 width="14.000000pt" height="14.000000pt" transform="rotate(180 0 0)" viewBox="0 0 1024.000000 1024.000000"
 preserveAspectRatio="xMidYMid meet">

<g transform="translate(0.000000,1024.000000) scale(0.100000,-0.100000)"
fill="#000000" stroke="none">
<path d="M2805 7320 l-169 -170 34 -33 c119 -113 1820 -1825 1820 -1830 0 -4
-148 -7 -329 -7 l-329 0 -450 463 c-247 254 -461 473 -476 487 l-27 24 -165
-164 c-90 -91 -163 -171 -162 -177 2 -7 137 -147 301 -312 163 -164 297 -304
297 -310 0 -8 -102 -11 -350 -11 l-350 0 0 -209 c0 -115 -3 -216 -6 -225 -6
-14 28 -16 340 -16 190 0 346 -1 346 -3 0 -1 -133 -137 -296 -301 l-296 -299
169 -169 c92 -92 171 -168 174 -168 4 0 218 212 476 470 l469 470 324 0 323 0
-914 -915 c-503 -503 -916 -917 -918 -920 -2 -2 72 -78 165 -168 l169 -164
585 578 c322 318 812 805 1090 1083 l505 506 1057 0 c582 0 1058 -2 1058 -5 0
-4 -121 -128 -270 -277 l-270 -271 0 -344 c0 -189 2 -343 5 -343 2 0 336 330
741 733 l736 732 -741 736 -741 736 0 -341 0 -341 275 -275 c151 -151 275
-278 275 -282 0 -5 -478 -8 -1063 -8 l-1063 0 -144 148 c-78 81 -476 484 -884
896 -408 411 -834 842 -947 957 l-205 208 -169 -169z"/>
</g>
</svg>
